<svg height="460" viewBox="0 0 746 460" width="746" xmlns="http://www.w3.org/2000/svg"><g fill="#1b1b1b"><path d="m552 363c0-6.627417 5.372583-12 12-12s12 5.372583 12 12c0 40.316787 32.683213 73 73 73s73-32.683213 73-73v-77.085945c-11.411287 9.424133-26.04445 15.085945-42 15.085945-36.450793 0-66-29.549207-66-66s29.549207-66 66-66c15.95555 0 30.588713 5.661812 42 15.085945v-3.085945c0-6.627417 5.372583-12 12-12s12 5.372583 12 12v182c0 53.571621-43.428379 97-97 97s-97-43.428379-97-97zm128-86c23.195959 0 42-18.804041 42-42s-18.804041-42-42-42-42 18.804041-42 42 18.804041 42 42 42z"/><path d="m574 230c0-20.434536-16.565464-37-37-37s-37 16.565464-37 37v59c0 6.627417-5.372583 12-12 12s-12-5.372583-12-12v-108c0-6.627417 5.372583-12 12-12s12 5.372583 12 12v.498556c10.262709-7.840977 23.087437-12.498556 37-12.498556 33.68937 0 61 27.31063 61 61v59c0 6.627417-5.372583 12-12 12s-12-5.372583-12-12z"/><path d="m448 95c6.627417 0 12 5.372583 12 12s-5.372583 12-12 12-12-5.372583-12-12 5.372583-12 12-12zm0 74c6.627417 0 12 5.372583 12 12v108c0 6.627417-5.372583 12-12 12s-12-5.372583-12-12v-108c0-6.627417 5.372583-12 12-12z"/><rect height="300" rx="12" width="24" x="396" y="1"/><path d="m282.879826 246c3.68942 17.514271 18.539508 30.5 36.120174 30.5 9.724974 0 18.61442-3.973494 25.241445-10.489002l16.971438 16.971438c-10.94197 10.841104-25.799404 17.517564-42.212883 17.517564-33.548711 0-60.59654-27.893092-60.995528-62.229962-.002974-.089647-.004472-.179667-.004472-.270038v-8c0-33.68937 27.31063-61 61-61s61 27.31063 61 61v4c0 6.627417-5.372583 12-12 12zm-.012682-24h72.265712c-3.656304-16.588745-18.445178-29-36.132856-29s-32.476552 12.411255-36.132856 29zm78.343419 60.975844-16.970563-16.970563c4.686292-4.686291 12.284271-4.686291 16.970563 0 4.686291 4.686292 4.686291 12.284272 0 16.970563z"/><path d="m144.879826 246c3.68942 17.514271 18.539508 30.5 36.120174 30.5 9.724974 0 18.61442-3.973494 25.241445-10.489002l16.971438 16.971438c-10.94197 10.841104-25.799404 17.517564-42.212883 17.517564-33.548711 0-60.59654-27.893092-60.995528-62.229962-.002974-.089647-.004472-.179667-.004472-.270038v-8c0-33.68937 27.31063-61 61-61s61 27.31063 61 61v4c0 6.627417-5.372583 12-12 12zm-.012682-24h72.265712c-3.656304-16.588745-18.445178-29-36.132856-29s-32.476552 12.411255-36.132856 29zm78.343419 60.975844-16.970563-16.970563c4.686292-4.686291 12.284271-4.686291 16.970563 0 4.686291 4.686292 4.686291 12.284272 0 16.970563z"/><path d="m194 97c0 6.627417-5.372583 12-12 12s-12-5.372583-12-12c0-40.3167867-32.683213-73-73-73-40.3167867 0-73 32.6832133-73 73v60h68c6.627417 0 12 5.372583 12 12s-5.372583 12-12 12h-68v108c0 6.627417-5.372583 12-12 12s-12-5.372583-12-12v-192c0-53.5716207 43.4283793-97 97-97 53.571621 0 97 43.4283793 97 97z"/></g></svg>